<?xml version="1.0" encoding="UTF-8"?>
<svg id="Layer_1" xmlns="http://www.w3.org/2000/svg" version="1.1" viewBox="0 0 41.5 41.5">
  <!-- Generator: Adobe Illustrator 29.8.1, SVG Export Plug-In . SVG Version: 2.1.1 Build 2)  -->
  <defs>
    <style>
      .st0 {
        stroke-width: .25px;
      }

      .st0, .st1 {
        fill: #556a83;
        stroke: #556a83;
        stroke-miterlimit: 10;
      }
    </style>
  </defs>
  <g id="Logo">
    <path class="st1" d="M21.04,1.98c2.16-1.84,3.9-1.31,6.36-.4,11.06,4.12,16.27,17.95,11.83,28.67-1.19,2.87-4.48,8.13-7.27,9.53-4.15,2.09-9.05,0-10.97-4.04-.25-.38-.53.59-.7.84-4.6,6.78-11.65,4.24-15.61-1.62C-2.47,24.37.8,8.14,12.48,2.33c2.43-1.21,6.26-2.8,8.19-.02l.2-.06c.06-.08.1-.21.17-.28h0ZM2.76,19.9c.69-.5,3.26-1.47,3.49-.16s-1.52.99-2.23,1.37c-1.52.82-1.44,2.34-1.27,3.81.51,4.22,3.08,9.52,6.32,12.3,4.54,3.89,10.38.48,10.87-5V4.87c0-1.28-1.08-2.46-2.4-2.4-.39.02-1.62.41-2.06.55C8.37,5.3,3.31,12.58,2.75,19.91h.01ZM38.83,19.77c-.71-7.47-5.78-14.55-13.05-16.83-.42-.13-1.37-.46-1.75-.48-1.41-.07-2.33,1.22-2.4,2.53v26.83c.48,6.04,6.81,9.57,11.53,4.88,2.74-2.73,4.83-6.98,5.49-10.78.31-1.77.75-3.98-1.3-4.87-.78-.34-2.42-.06-2.02-1.44.32-1.1,2.77-.14,3.49.17h.01Z"/>
    <path class="st0" d="M8.74,7.43c-.92-2.08,1.86-1.48,2.93-.91.98.53,1.56,1.54,2.07,2.5.76-.5,3.8-1.33,3.55.3-.13.87-1.39.72-2.06.94-.95.32-1.77,1.08-2.15,2.02s-.08,2.48-1.4,2.19c-.94-.21-.53-1.81-.32-2.48.4-1.31,1.34-1.71.28-3.22-.73-1.04-1.77-1.04-2.89-1.34h0Z"/>
    <path class="st0" d="M14.54,18.23c.56-.76,1.7-1.63,2.13-.29.19.57-1.08,1.45-1.16,2.63-.07,1.1.34,1.27.81,2.06.66,1.1-.58,1.96-1.39,1.16-1.32-1.31-1.49-4.07-.4-5.55h0Z"/>
    <path class="st0" d="M31.42,34.14c-1.68-1.29-2.43.24-3.8.56-.82.19-2.62.34-2.12-1,.2-.53,1.54-.6,2.09-.86.96-.44,1.85-1.59,2.02-2.64.09-.59-.21-1.79.88-1.79,1.56,0,.61,2.68.45,3.54.77.42,1.49.72,2.09,1.4s2.02,3.38.51,3.62c-1.27.2-.99-1.27-1.48-2.09-.07-.12-.54-.65-.64-.73h0Z"/>
    <path class="st0" d="M27.93,8.89c.37-1.09,1.38-2.15,2.44-2.57.67-.27,2.34-.74,2.63.21.4,1.33-1.51,1.02-2.31,1.54-.6.39-1.43,1.57-1.28,2.3.07.35.42.68.56,1.01.36.89,1.13,3.49-.62,3.1-.8-.18-.58-1.48-.89-2.23s-1.26-1.71-2.07-1.97-2.47,0-2.06-1.4c.38-1.3,3.29.22,3.6.02h0Z"/>
    <path class="st0" d="M27.14,18.23c-.56-.76-1.7-1.63-2.13-.29-.19.57,1.08,1.45,1.16,2.63.07,1.1-.34,1.27-.81,2.06-.66,1.1.58,1.96,1.39,1.16,1.32-1.31,1.49-4.07.4-5.55h0Z"/>
    <path class="st0" d="M10.31,34.14c1.68-1.29,2.43.24,3.8.56.82.19,2.62.34,2.12-1-.2-.53-1.54-.6-2.09-.86-.96-.44-1.85-1.59-2.02-2.64-.09-.59.21-1.79-.88-1.79-1.56,0-.61,2.68-.45,3.54-.77.42-1.49.72-2.09,1.4s-2.02,3.38-.51,3.62c1.27.2.99-1.27,1.48-2.09.07-.12.54-.65.64-.73h0Z"/>
  </g>
</svg>