<?xml version="1.0" encoding="UTF-8"?>
<svg id="Layer_1" xmlns="http://www.w3.org/2000/svg" version="1.1" viewBox="0 0 215.28 36.47">
  <!-- Generator: Adobe Illustrator 29.8.1, SVG Export Plug-In . SVG Version: 2.1.1 Build 2)  -->
  <defs>
    <style>
      .st0 {
        fill: #506b85;
      }
    </style>
  </defs>
  <path id="Brand_Name" class="st0" d="M72.56,25.54V6.34c0-.05.15-.29.22-.33.27-.17,3.52-.19,4.02-.13.45.06.61.29.7.73v22.53c0,.48-.46.73-.87.81-1.13.2-4.24.08-5.41-.13-6.48-1.18-10.85-12.3-15.14-16.9-1.15-1.24-2.84-2.68-4.62-2.6v19.08c0,.06-.19.33-.27.38-.41.3-3.76.31-4.21.06-.17-.1-.31-.23-.34-.44l.11-23.32.34-.18c1.7.09,3.53-.13,5.21,0,7.39.56,11.87,12.11,16.27,17.06,1.03,1.16,2.36,2.43,3.97,2.6ZM119.96,25.02v-8.92s-.33-.36-.39-.39c-.23-.11-3.58-.14-3.97-.07-.24.04-.32.16-.4.38l-.06,12.97c.06.73.12.79.85.85,6.32-.36,13.15.46,19.41,0,4.32-.32,8.19-4.22,8.53-8.53.58-7.35-.19-14.2-8.79-15.44h-19.28c-.33,0-.65.27-.71.59-.08.45-.09,3.2,0,3.64.06.32.32.47.61.56l19.24.03c1.96.15,3.84,2.06,4.09,3.98.17,1.28.17,5.21,0,6.49-.23,1.76-2.08,3.62-3.83,3.85h-15.3ZM105.83,20.33c.17,0,.54-.37.58-.59.11-.57.07-2.74,0-3.39-.04-.47-.1-.81-.62-.94l-22.83.03c-.5.15-.64.71-.65,1.17.28,3.9-.36,8.28,0,12.12.07.74.25,1.24,1.11,1.24l26.95-.02c.61-.09.92-.33.99-.96.08-.67.09-3.3-.26-3.75-.06-.08-.26-.23-.33-.23h-23.5v-4.69h18.55ZM153.03,25.02v-4.69h18.55c.07,0,.38-.25.44-.34.22-.35.2-2.94.15-3.51-.04-.42-.14-1-.62-1.07l-22.83.03c-.57.18-.6.34-.65.91-.34,3.99.27,8.47,0,12.51.09.99.33,1.05,1.24,1.11l26.82-.02c.37-.08.77-.15.86-.58s.08-3.33,0-3.77c-.03-.17-.33-.55-.45-.59h-23.5ZM179.05,7.15l10.6,20.39c3.43,4.5,8.82,4.08,11.63-.82,3.08-5.36,6.05-11.5,8.85-17.06.25-.49,1.53-2.88,1.5-3.19-.04-.39-.52-.56-.85-.59-.77-.09-3.03-.1-3.79,0-.18.02-.34.03-.46.19l-9.65,18.74c-.96,1.4-2.65,1.34-3.39-.22l-9.48-18.38c-.21-.23-.41-.29-.72-.33-.55-.06-3.61-.09-4.01.03-.48.14-.41.88-.25,1.24ZM15.79,10.7v18.55c0,.26.43.55.71.59.44.06,3.6.04,3.85-.07.06-.03.26-.24.26-.26V10.7h11.65c.34,0,.54-.71.58-.99.07-.59.1-3.18-.19-3.56-.13-.17-.32-.23-.52-.26l-27.6-.02c-.64-.07-.78.46-.84.98-.06.55-.07,3.16.14,3.5.06.1.34.32.44.34h11.52ZM148.86,10.66l34.13.03c.42-.06.65-.4.72-.72.1-.52.12-3.01,0-3.5-.07-.33-.46-.6-.87-.6h-34.01c-.55.08-.67.6-.73.98-.07.54-.09,3.24.21,3.54.07.07.44.24.55.26ZM117.66,5.88l-34.44.02-.54.15c-.12.13-.16.28-.19.43-.11.61-.15,3.08-.01,3.64.11.44.73.61,1.22.59h34.28c.35-.06.67-.32.74-.6.14-.62.08-2.69.01-3.39-.03-.24-.02-.48-.21-.68l-.86-.17ZM41.06,29V6.47c-.06-.28-.32-.53-.59-.59-.45-.08-3.19-.09-3.64,0s-.61.58-.59.97v22.4c.06.28.32.53.6.59.62.11,2.69.07,3.39,0,.24-.02.48-.02.68-.17l.17-.68Z"/>
</svg>