<?xml version="1.0" encoding="UTF-8"?>
<svg xmlns="http://www.w3.org/2000/svg" viewBox="0 0 261.5 40.9">
  <defs>
    <style>
      .cls-1 {
        fill: #506b85;
      }

      .cls-2 {
        fill: #556a83;
        stroke: #556a83;
        stroke-miterlimit: 10;
      }
    </style>
  </defs>
  <g id="Layer_1" data-name="Layer 1">
    <path id="Logo" class="cls-2" d="M20.6,1.7c2.2-1.8,3.9-1.3,6.4-.4,11.1,4.1,16.3,18,11.8,28.7-1.2,2.9-4.5,8.1-7.3,9.5-4.2,2.1-9,0-11-4-.3-.4-.5.6-.7.8-4.6,6.8-11.7,4.2-15.6-1.6C-2.9,24.1.4,7.9,12.1,2.1c2.4-1.2,6.3-2.8,8.2,0h.2c0-.1,0-.3.2-.3ZM2.3,19.7c.7-.5,3.3-1.5,3.5-.2s-1.5,1-2.2,1.4c-1.5.8-1.4,2.3-1.3,3.8.5,4.2,3.1,9.5,6.3,12.3,4.5,3.9,10.4.5,10.9-5V4.6c0-1.3-1.1-2.5-2.4-2.4s-1.6.4-2.1.5C8,5,2.9,12.3,2.3,19.7ZM38.4,19.5c-.7-7.5-5.8-14.6-13-16.8s-1.4-.5-1.7-.5c-1.4,0-2.3,1.2-2.4,2.5v26.8c.5,6,6.8,9.6,11.5,4.9,2.7-2.7,4.8-7,5.5-10.8s.8-4-1.3-4.9-2.4,0-2-1.4,2.8-.1,3.5.2ZM11.2,8.5c1.1,1.5.1,1.9-.3,3.2s-.6,2.3.3,2.5c1.3.3,1-1.3,1.4-2.2s1.2-1.7,2.2-2,1.9,0,2.1-.9c.2-1.6-2.8-.8-3.5-.3-.5-1-1.1-2-2.1-2.5s-3.8-1.2-2.9.9c1.1.3,2.2.3,2.9,1.3ZM14.5,23.5c.8.8,2,0,1.4-1.2s-.9-1-.8-2.1,1.3-2.1,1.2-2.6c-.4-1.3-1.6-.5-2.1.3-1.1,1.5-.9,4.2.4,5.6ZM31.6,34.6c.5.8.2,2.3,1.5,2.1s.1-2.9-.5-3.6-1.3-1-2.1-1.4c.2-.9,1.1-3.5-.4-3.5s-.8,1.2-.9,1.8c-.2,1.1-1.1,2.2-2,2.6s-1.9.3-2.1.9c-.5,1.3,1.3,1.2,2.1,1,1.4-.3,2.1-1.9,3.8-.6s.6.6.6.7ZM23.9,8.6c-.4,1.4,1.3,1.1,2.1,1.4s1.7,1.2,2.1,2,0,2.1.9,2.2c1.7.4,1-2.2.6-3.1s-.5-.7-.6-1c-.1-.7.7-1.9,1.3-2.3s2.7-.2,2.3-1.5-2-.5-2.6-.2c-1.1.4-2.1,1.5-2.4,2.6-.3.2-3.2-1.3-3.6,0ZM26.7,18c-.6-.8-1.7-1.6-2.1-.3s1.1,1.5,1.2,2.6-.3,1.3-.8,2.1.6,2,1.4,1.2c1.3-1.3,1.5-4.1.4-5.6ZM9.9,33.9c1.7-1.3,2.4.2,3.8.6s2.6.3,2.1-1-1.5-.6-2.1-.9c-1-.4-1.9-1.6-2-2.6s.2-1.8-.9-1.8c-1.6,0-.6,2.7-.4,3.5-.8.4-1.5.7-2.1,1.4s-2,3.4-.5,3.6,1-1.3,1.5-2.1.5-.7.6-.7Z"/>
  </g>
  <g id="Layer_2" data-name="Layer 2">
    <path id="Brand_Name" data-name="Brand Name" class="cls-1" d="M122.5,27.8V8.6c0,0,.2-.3.2-.3.3-.2,3.5-.2,4-.1s.6.3.7.7v22.5c0,.5-.5.7-.9.8-1.1.2-4.2,0-5.4-.1-6.5-1.2-10.9-12.3-15.1-16.9s-2.8-2.7-4.6-2.6v19.1c0,0-.2.3-.3.4-.4.3-3.8.3-4.2,0s-.3-.2-.3-.4V8.3c.1,0,.5-.2.5-.2,1.7,0,3.5-.1,5.2,0,7.4.6,11.9,12.1,16.3,17.1,1,1.2,2.4,2.4,4,2.6ZM169.9,27.2v-8.9s-.3-.4-.4-.4c-.2-.1-3.6-.1-4,0s-.3.2-.4.4v13c0,.7,0,.8.8.8,6.3-.4,13.1.5,19.4,0,4.3-.3,8.2-4.2,8.5-8.5.6-7.4-.2-14.2-8.8-15.4h-19.3c-.3,0-.6.3-.7.6s0,3.2,0,3.6.3.5.6.6h19.2c2,.2,3.8,2.1,4.1,4s.2,5.2,0,6.5-2.1,3.6-3.8,3.9h-15.3ZM155.7,22.5c.2,0,.5-.4.6-.6.1-.6,0-2.7,0-3.4s-.1-.8-.6-.9h-22.8c-.5.2-.6.7-.6,1.2.3,3.9-.4,8.3,0,12.1s.3,1.2,1.1,1.2h26.9c.6-.1.9-.4,1-1s0-3.3-.3-3.7-.3-.2-.3-.2h-23.5v-4.7h18.6ZM202.9,27.2v-4.7h18.6c0,0,.4-.2.4-.3.2-.3.2-2.9.2-3.5s-.1-1-.6-1.1h-22.8c-.6.2-.6.4-.7.9-.3,4,.3,8.5,0,12.5,0,1,.3,1,1.2,1.1h26.8c.4,0,.8-.2.9-.6s0-3.3,0-3.8-.3-.6-.5-.6h-23.5ZM228.9,9.4l10.6,20.4c3.4,4.5,8.8,4.1,11.6-.8,3.1-5.4,6.1-11.5,8.9-17.1s1.5-2.9,1.5-3.2-.5-.6-.8-.6c-.8,0-3-.1-3.8,0s-.3,0-.5.2l-9.6,18.7c-1,1.4-2.7,1.3-3.4-.2l-9.5-18.4c-.2-.2-.4-.3-.7-.3-.5,0-3.6,0-4,0s-.4.9-.2,1.2ZM65.7,12.9v18.6c0,.3.4.6.7.6.4,0,3.6,0,3.8,0s.3-.2.3-.3V12.9h11.7c.3,0,.5-.7.6-1,0-.6,0-3.2-.2-3.6s-.3-.2-.5-.3h-27.6c-.6,0-.8.4-.8,1s0,3.2.1,3.5.3.3.4.3h11.5ZM198.7,12.9h34.1c.4,0,.7-.4.7-.7.1-.5.1-3,0-3.5s-.5-.6-.9-.6h-34c-.5,0-.7.6-.7,1s0,3.2.2,3.5.4.2.6.3ZM167.6,8.1h-34.4s-.5.2-.5.2c-.1.1-.2.3-.2.4-.1.6-.1,3.1,0,3.6s.7.6,1.2.6h34.3c.4,0,.7-.3.7-.6.1-.6,0-2.7,0-3.4s0-.5-.2-.7l-.9-.2ZM91,31.2V8.7c0-.3-.3-.5-.6-.6-.5,0-3.2,0-3.6,0s-.6.6-.6,1v22.4c0,.3.3.5.6.6.6.1,2.7,0,3.4,0s.5,0,.7-.2l.2-.7Z"/>
  </g>
</svg>